<!-- Generated by IcoMoon.io -->
<svg version="1.1" xmlns="http://www.w3.org/2000/svg" width="18" height="20" viewBox="0 0 30 32">
<title>Shape-icon</title>
<path fill="#70778b" d="M21.664 23.855l-11.408-6.667c0.080-0.37 0.144-0.739 0.144-1.124s-0.064-0.755-0.144-1.125l11.28-6.602c0.864 0.803 2 1.301 3.264 1.301 2.656 0 4.8-2.153 4.8-4.819s-2.144-4.819-4.8-4.819c-2.656 0-4.8 2.153-4.8 4.819 0 0.386 0.064 0.755 0.144 1.125l-11.28 6.602c-0.864-0.803-2-1.301-3.264-1.301-2.656 0-4.8 2.153-4.8 4.819s2.144 4.819 4.8 4.819c1.264 0 2.4-0.498 3.264-1.301l11.392 6.683c-0.080 0.337-0.128 0.691-0.128 1.044 0 2.586 2.096 4.691 4.672 4.691s4.672-2.104 4.672-4.691c0-2.586-2.096-4.691-4.672-4.691-1.216 0-2.304 0.482-3.136 1.237z"></path>
</svg>
